<svg xmlns="http://www.w3.org/2000/svg" width="23.517" height="30.17" viewBox="0 0 23.517 30.17">
  <g id="Group_753" data-name="Group 753" transform="translate(-29.111 -38.364)" opacity="0.893">
    <path id="Path_8286" data-name="Path 8286" d="M52.086,61.023l0-.01L50.033,59.2V50.373c0-.051,0-.1,0-.156a9.153,9.153,0,0,0-6.63-8.649v-.677a.979.979,0,0,0-.007-.143,2.526,2.526,0,0,0-5.044,0c0,.018,0,.817,0,.817a9.156,9.156,0,0,0-6.64,8.808,7.818,7.818,0,0,0,.037.8V59.2L29.66,61.121l-.088.082a1.488,1.488,0,0,0-.461,1.08,1.507,1.507,0,0,0,1.508,1.508h20.43a1.578,1.578,0,0,0,1.037-2.768Z" fill="#fff"/>
    <path id="Path_8287" data-name="Path 8287" d="M40.87,68.534a3.158,3.158,0,0,0,3.158-3.157H37.713A3.157,3.157,0,0,0,40.87,68.534Z" fill="#fff"/>
  </g>
</svg>
