<svg xmlns="http://www.w3.org/2000/svg" width="20.498" height="20.5" viewBox="0 0 20.498 20.5">
  <path id="icons8-settings" d="M22.127,10.566l-2.634-.43a7.546,7.546,0,0,0-.629-1.517L20.4,6.427a.446.446,0,0,0-.05-.571L18.619,4.123a.445.445,0,0,0-.575-.046L15.885,5.628a7.475,7.475,0,0,0-1.529-.636L13.9,2.369A.446.446,0,0,0,13.457,2H11.006a.446.446,0,0,0-.44.374L10.14,4.983a7.508,7.508,0,0,0-1.532.629L6.456,4.075a.446.446,0,0,0-.574.047L4.149,5.854a.445.445,0,0,0-.05.57L5.614,8.592a7.548,7.548,0,0,0-.641,1.542l-2.6.433A.446.446,0,0,0,2,11.006v2.451a.446.446,0,0,0,.368.439l2.6.461A7.511,7.511,0,0,0,5.609,15.9L4.076,18.044a.447.447,0,0,0,.047.574l1.733,1.734a.446.446,0,0,0,.571.05l2.17-1.52a7.519,7.519,0,0,0,1.535.635l.435,2.612a.444.444,0,0,0,.439.372h2.451a.445.445,0,0,0,.439-.368l.466-2.625a7.494,7.494,0,0,0,1.529-.64L18.076,20.4a.445.445,0,0,0,.571-.049l1.733-1.734a.446.446,0,0,0,.046-.576l-1.559-2.165a7.46,7.46,0,0,0,.627-1.519l2.637-.463a.446.446,0,0,0,.369-.439V11.006A.445.445,0,0,0,22.127,10.566Zm-9.876,4.8a3.12,3.12,0,1,1,3.12-3.12A3.12,3.12,0,0,1,12.251,15.37Z" transform="translate(-2.002 -2)"/>
</svg>
